<?xml version="1.0" standalone="no"?><!DOCTYPE svg PUBLIC "-//W3C//DTD SVG 1.1//EN" "http://www.w3.org/Graphics/SVG/1.1/DTD/svg11.dtd"><svg t="1504192880845" class="icon" style="" viewBox="0 0 1024 1024" version="1.1" xmlns="http://www.w3.org/2000/svg" p-id="2968" xmlns:xlink="http://www.w3.org/1999/xlink" width="200" height="200"><defs><style type="text/css"></style></defs><path d="M450.689107 695.123641 574.115226 695.123641 574.115226 526.043377 450.590329 526.043377Z" p-id="2969" fill="#1296db"></path><path d="M326.849063 459.263018l0 235.137194 86.566958 0 0.143933-186.612848c0.036689-8.503355 7.614355-15.361355 16.938036-15.361355l163.63902 0c9.359429 0 16.937095 6.891866 16.937095 15.40651l0 186.567693 86.071188 0 0-233.718557-185.008886-176.445323L326.849063 459.263018z" p-id="2970" fill="#1296db"></path><path d="M512 8.30674c-278.181725 0-503.69326 225.509654-503.69326 503.692319 0 278.181725 225.511535 503.69326 503.69326 503.69326s503.69326-225.511535 503.69326-503.69326C1015.6942 233.816394 790.182665 8.30674 512 8.30674zM617.638594 268.074407l74.844388 0c9.359429 0 16.937095 8.175037 16.937095 16.68874l0 102.893513-36.957939-34.747198 0-50.865849-36.729339 0-14.648273 0.043274-32.067028-34.155472L617.638594 268.074407zM778.097911 513.476022c-3.263429 2.881489-9.565451 2.420526-13.781851 2.431815-4.444059 0-9.925755-0.658518-13.251273-3.802474l-16.840199-16.060325 0 215.635639c0 8.513703-9.625659 16.338784-18.985088 16.338784l-83.493558 0 0 0.294452-242.086445 0 0-0.294452-81.542462 0c-9.359429 0-17.972851-7.825081-17.972851-16.338784l0-217.74478-17.238132 16.284221c-6.492992 6.170318-19.262606 6.334007-26.007717 0.450615-6.746992-5.895622-9.022644-22.189251-2.554111-28.325702l255.577607-242.24449c3.191933-3.03577 7.602125-4.733807 12.215518-4.733807 4.613392 0 9.021703 1.698037 12.226807 4.733807l254.239874 242.255779C785.060332 488.49089 784.856192 507.602037 778.097911 513.476022z" p-id="2971" fill="#1296db"></path></svg>